<?xml version="1.0" standalone="no"?>
<!DOCTYPE svg PUBLIC "-//W3C//DTD SVG 20010904//EN"
 "http://www.w3.org/TR/2001/REC-SVG-20010904/DTD/svg10.dtd">
<svg version="1.0" xmlns="http://www.w3.org/2000/svg"
 width="500.000000pt" height="320.000000pt" viewBox="0 0 500.000000 320.000000"
 preserveAspectRatio="xMidYMid meet">

<g transform="translate(0.000000,320.000000) scale(0.100000,-0.100000)"
fill="#000000" stroke="none">
<path d="M0 2370 l0 -829 84 -56 c47 -30 112 -69 147 -86 78 -39 274 -103 292
-96 12 4 10 20 -10 88 -65 225 -72 531 -17 769 35 153 103 324 198 494 84 151
271 359 434 482 l85 64 -606 0 -607 0 0 -830z"/>
<path d="M970 2630 c-19 -19 -20 -33 -20 -338 0 -259 3 -322 14 -338 13 -18
30 -19 217 -22 112 -2 213 -1 226 3 49 12 55 82 8 103 -16 8 -82 12 -175 12
l-149 0 -3 281 -3 281 -24 19 c-30 25 -66 24 -91 -1z"/>
<path d="M4502 2634 c-21 -14 -22 -22 -22 -135 0 -65 -4 -119 -9 -119 -5 0
-15 7 -22 17 -23 27 -91 53 -142 53 -133 0 -217 -96 -217 -250 0 -41 5 -93 11
-115 43 -154 201 -213 328 -122 51 37 51 37 51 13 0 -55 75 -78 105 -32 14 20
15 68 13 351 -3 310 -4 327 -22 341 -25 18 -46 18 -74 -2z m-95 -299 c74 -49
82 -217 13 -287 -56 -55 -153 -30 -186 48 -21 49 -18 147 5 193 34 66 107 86
168 46z"/>
<path d="M3870 2620 c-24 -24 -25 -48 -4 -78 32 -46 114 -17 114 40 0 26 -36
58 -65 58 -14 0 -34 -9 -45 -20z"/>
<path d="M1556 2435 c-24 -24 -29 -73 -24 -243 4 -184 14 -212 88 -249 73 -38
149 -27 227 33 29 22 33 23 33 7 0 -55 62 -81 101 -42 19 19 20 29 17 250 -3
215 -4 232 -22 245 -25 18 -57 18 -82 0 -17 -13 -19 -31 -24 -181 l-5 -167
-37 -34 c-63 -57 -137 -41 -158 34 -5 20 -10 100 -10 177 0 111 -3 145 -16
163 -18 26 -65 30 -88 7z"/>
<path d="M2146 2428 c-13 -19 -16 -60 -16 -245 0 -210 1 -224 20 -243 11 -11
31 -20 45 -20 14 0 34 9 45 20 18 18 20 33 20 165 0 160 9 199 53 228 29 19
88 22 117 7 30 -16 40 -74 40 -230 0 -164 8 -190 60 -190 63 0 74 38 68 252
-3 127 -7 160 -23 193 -49 99 -208 113 -297 28 -26 -24 -28 -25 -28 -7 0 34
-29 64 -60 64 -18 0 -34 -8 -44 -22z"/>
<path d="M2880 2441 c-71 -23 -122 -66 -156 -131 -29 -53 -27 -200 3 -256 30
-55 93 -109 149 -124 59 -17 159 -8 211 18 176 90 175 384 0 474 -45 23 -162
34 -207 19z m147 -106 c69 -46 82 -202 22 -278 -11 -15 -37 -32 -59 -38 -32
-10 -44 -9 -76 7 -52 26 -74 60 -81 126 -8 77 3 122 38 163 42 47 102 55 156
20z"/>
<path d="M3302 2443 c-7 -3 -17 -16 -23 -29 -7 -20 7 -64 78 -241 47 -119 95
-225 105 -235 26 -26 80 -23 105 5 24 26 183 420 183 453 0 48 -61 72 -93 37
-8 -10 -43 -94 -78 -186 -34 -92 -65 -164 -69 -160 -4 4 -33 81 -65 171 -32
90 -64 170 -72 178 -14 14 -46 17 -71 7z"/>
<path d="M3874 2436 c-18 -13 -19 -30 -22 -245 -3 -221 -2 -231 17 -250 27
-27 65 -27 91 -1 19 19 20 33 20 245 0 212 -1 226 -20 245 -23 23 -58 26 -86
6z"/>
<path d="M4227 1238 c-21 -11 -22 -37 -2 -45 14 -5 14 -7 0 -23 -11 -12 -13
-20 -6 -24 17 -11 48 11 55 38 11 45 -13 73 -47 54z"/>
<path d="M1970 1235 c0 -3 18 -41 40 -85 32 -64 40 -90 40 -135 0 -54 0 -55
30 -55 29 0 30 1 30 50 0 40 10 69 45 140 l45 90 -29 0 c-26 0 -33 -7 -55 -55
-14 -30 -28 -55 -31 -55 -3 0 -17 25 -30 55 -22 49 -28 55 -55 55 -16 0 -30
-2 -30 -5z"/>
<path d="M3257 1233 c-14 -14 -6 -42 14 -48 26 -8 54 16 46 39 -6 16 -48 22
-60 9z"/>
<path d="M3520 1215 c0 -16 6 -25 15 -25 8 0 15 -7 15 -15 0 -11 -11 -15 -39
-15 -28 0 -49 -7 -68 -24 -24 -21 -28 -31 -28 -79 0 -39 5 -61 19 -75 26 -29
70 -37 106 -19 16 9 30 11 30 6 0 -5 16 -9 35 -9 28 0 35 4 35 20 0 11 -7 20
-15 20 -12 0 -15 20 -15 120 l0 120 -45 0 c-41 0 -45 -2 -45 -25z m25 -155 c0
-55 0 -55 -32 -58 -38 -4 -58 24 -48 69 7 32 30 50 60 46 17 -2 20 -9 20 -57z"/>
<path d="M2249 1131 c-57 -57 -31 -158 46 -177 44 -11 103 12 121 48 23 44 13
106 -21 135 -40 35 -108 32 -146 -6z m112 -32 c16 -16 20 -28 15 -52 -7 -35
-21 -47 -53 -47 -51 0 -73 75 -31 104 30 21 44 20 69 -5z"/>
<path d="M2450 1135 c0 -14 5 -25 10 -25 6 0 10 -27 10 -60 0 -90 40 -121 110
-85 17 9 30 11 30 5 0 -5 16 -10 35 -10 28 0 35 4 35 20 0 11 -7 20 -15 20
-12 0 -15 16 -15 80 l0 80 -35 0 c-41 0 -59 -25 -32 -45 20 -14 23 -85 5 -103
-17 -17 -55 -15 -62 4 -3 9 -6 45 -6 80 l0 64 -35 0 c-31 0 -35 -3 -35 -25z"/>
<path d="M2700 1135 c0 -20 5 -25 25 -25 24 0 25 -3 25 -55 0 -52 -1 -55 -25
-55 -18 0 -25 -5 -25 -20 0 -19 7 -20 95 -20 88 0 95 1 95 20 0 17 -7 20 -45
20 l-45 0 0 43 c0 24 5 48 12 55 17 17 48 15 48 -3 0 -20 39 -20 46 0 4 8 -1
26 -10 40 -18 28 -62 34 -85 13 -11 -10 -14 -10 -18 0 -3 7 -23 12 -49 12 -40
0 -44 -2 -44 -25z"/>
<path d="M3190 1135 c0 -22 4 -25 35 -25 l35 0 0 -55 0 -55 -35 0 c-28 0 -35
-4 -35 -20 0 -19 7 -20 100 -20 93 0 100 1 100 20 0 17 -7 20 -40 20 l-40 0 0
80 0 80 -60 0 c-57 0 -60 -1 -60 -25z"/>
<path d="M3713 1150 c-32 -13 -56 -66 -49 -108 11 -70 78 -106 151 -82 25 8
35 17 33 28 -3 13 -13 16 -45 14 -52 -4 -83 5 -83 24 0 11 16 14 70 14 l70 0
0 39 c0 31 -6 44 -26 60 -28 22 -82 27 -121 11z m78 -40 c32 -18 21 -30 -26
-30 -47 0 -58 12 -27 29 22 13 29 13 53 1z"/>
<path d="M3937 1153 c-31 -8 -16 -38 18 -36 46 2 75 -6 75 -22 0 -10 -10 -15
-29 -15 -46 0 -80 -17 -91 -45 -21 -55 37 -98 93 -70 20 10 33 12 35 5 2 -5
19 -10 38 -10 27 0 34 4 34 20 0 11 -7 20 -15 20 -12 0 -15 14 -15 63 0 79
-16 98 -81 96 -24 -1 -52 -3 -62 -6z m88 -113 c9 -15 -14 -40 -37 -40 -23 0
-36 29 -17 41 19 12 46 11 54 -1z"/>
<path d="M4410 1140 c-39 -39 -14 -82 60 -100 30 -7 50 -17 50 -26 0 -17 -52
-19 -82 -3 -16 9 -24 7 -37 -6 -15 -15 -15 -17 3 -30 51 -38 142 -28 164 18
19 40 2 64 -63 82 -30 9 -55 21 -55 26 0 16 27 21 64 11 31 -9 38 -8 46 9 9
16 7 21 -15 29 -45 17 -113 12 -135 -10z"/>
<path d="M1000 735 c0 -16 6 -25 15 -25 12 0 15 -19 15 -110 l0 -109 40 -12
c52 -16 113 1 137 37 25 39 21 109 -8 140 -21 23 -30 25 -71 21 l-48 -4 0 43
0 44 -40 0 c-36 0 -40 -2 -40 -25z m151 -105 c13 -7 19 -21 19 -43 0 -47 -19
-69 -55 -65 -28 3 -30 6 -33 48 -3 33 1 47 14 57 22 16 30 16 55 3z"/>
<path d="M1577 753 c-14 -14 -6 -42 14 -48 26 -8 54 16 46 39 -6 16 -48 22
-60 9z"/>
<path d="M1760 735 c0 -16 6 -25 15 -25 12 0 15 -18 15 -99 0 -96 1 -100 26
-120 30 -23 50 -26 89 -11 21 8 24 13 16 28 -7 14 -18 18 -39 14 -37 -5 -42
10 -42 141 l0 97 -40 0 c-36 0 -40 -2 -40 -25z"/>
<path d="M2080 735 c0 -16 6 -25 15 -25 8 0 15 -7 15 -15 0 -11 -11 -15 -39
-15 -28 0 -49 -7 -68 -24 -24 -21 -28 -31 -28 -79 0 -39 5 -61 19 -75 26 -29
70 -37 106 -19 16 9 30 11 30 6 0 -5 16 -9 35 -9 28 0 35 4 35 20 0 11 -7 20
-15 20 -12 0 -15 20 -15 120 l0 120 -45 0 c-41 0 -45 -2 -45 -25z m25 -155 c0
-55 0 -55 -32 -58 -38 -4 -58 24 -48 69 7 32 30 50 60 46 17 -2 20 -9 20 -57z"/>
<path d="M2297 753 c-14 -14 -6 -42 14 -48 26 -8 54 16 46 39 -6 16 -48 22
-60 9z"/>
<path d="M3160 735 c0 -16 6 -25 15 -25 12 0 15 -19 15 -110 l0 -109 40 -12
c52 -16 113 1 137 37 25 39 21 109 -8 140 -21 23 -30 25 -71 21 l-48 -4 0 43
0 44 -40 0 c-36 0 -40 -2 -40 -25z m151 -105 c13 -7 19 -21 19 -43 0 -47 -19
-69 -55 -65 -28 3 -30 6 -33 48 -3 33 1 47 14 57 22 16 30 16 55 3z"/>
<path d="M3440 735 c0 -16 6 -25 15 -25 12 0 15 -18 15 -99 0 -96 1 -100 26
-120 30 -23 50 -26 89 -11 21 8 24 13 16 28 -7 14 -18 18 -39 14 -37 -5 -42
10 -42 141 l0 97 -40 0 c-36 0 -40 -2 -40 -25z"/>
<path d="M4120 735 c0 -16 6 -25 15 -25 12 0 15 -19 15 -115 l0 -115 30 0 c28
0 30 2 30 40 0 22 3 40 8 40 4 -1 21 -19 37 -40 25 -33 36 -39 68 -40 30 0 37
3 37 20 0 13 -7 20 -19 20 -18 0 -71 52 -71 69 0 4 16 22 35 41 42 41 44 50 7
50 -21 0 -35 -10 -58 -40 -16 -22 -32 -40 -36 -40 -5 0 -8 36 -8 80 l0 80 -45
0 c-41 0 -45 -2 -45 -25z"/>
<path d="M1250 655 c0 -14 5 -25 10 -25 6 0 10 -27 10 -60 0 -90 40 -121 110
-85 17 9 30 11 30 5 0 -5 16 -10 35 -10 28 0 35 4 35 20 0 11 -7 20 -15 20
-12 0 -15 16 -15 80 l0 80 -35 0 c-41 0 -59 -25 -32 -45 20 -14 23 -85 5 -103
-17 -17 -55 -15 -62 4 -3 9 -6 45 -6 80 l0 64 -35 0 c-31 0 -35 -3 -35 -25z"/>
<path d="M1510 655 c0 -22 4 -25 35 -25 l35 0 0 -55 0 -55 -35 0 c-28 0 -35
-4 -35 -20 0 -19 7 -20 100 -20 93 0 100 1 100 20 0 17 -7 20 -40 20 l-40 0 0
80 0 80 -60 0 c-57 0 -60 -1 -60 -25z"/>
<path d="M2230 655 c0 -22 4 -25 35 -25 l35 0 0 -55 0 -55 -35 0 c-28 0 -35
-4 -35 -20 0 -19 7 -20 100 -20 93 0 100 1 100 20 0 17 -7 20 -40 20 l-40 0 0
80 0 80 -60 0 c-57 0 -60 -1 -60 -25z"/>
<path d="M2443 664 c-4 -10 1 -22 10 -29 13 -9 17 -29 17 -84 l0 -71 30 0 30
0 0 70 c0 65 2 71 25 82 41 18 55 -3 55 -83 0 -67 1 -69 25 -69 25 0 25 1 25
83 0 96 -13 117 -70 117 -18 0 -42 -7 -52 -17 -17 -15 -18 -15 -18 0 0 24 -68
24 -77 1z"/>
<path d="M2735 657 c-35 -30 -46 -104 -21 -142 23 -34 61 -49 98 -36 21 8 28
7 28 -3 0 -24 -28 -38 -72 -34 -37 3 -43 0 -43 -17 0 -28 79 -44 121 -24 44
21 54 52 54 165 0 116 1 114 -85 114 -42 0 -60 -5 -80 -23z m103 -65 c3 -47
-10 -72 -39 -72 -21 0 -49 36 -49 62 0 26 38 60 63 56 18 -2 23 -11 25 -46z"/>
<path d="M3689 651 c-57 -57 -31 -158 46 -177 44 -11 103 12 121 48 23 44 13
106 -21 135 -40 35 -108 32 -146 -6z m112 -32 c16 -16 20 -28 15 -52 -7 -35
-21 -47 -53 -47 -51 0 -73 75 -31 104 30 21 44 20 69 -5z"/>
<path d="M3939 651 c-23 -24 -29 -38 -29 -73 0 -54 19 -83 66 -98 57 -19 130
1 118 33 -5 13 -15 15 -50 10 -51 -7 -84 14 -84 54 0 28 33 63 60 63 13 0 20
-7 20 -20 0 -15 7 -20 25 -20 22 0 25 4 25 34 0 39 -11 46 -77 46 -36 0 -50
-6 -74 -29z"/>
<path d="M4410 660 c-39 -39 -14 -82 60 -100 30 -7 50 -17 50 -26 0 -17 -52
-19 -82 -3 -16 9 -24 7 -37 -6 -15 -15 -15 -17 3 -30 51 -38 142 -28 164 18
19 40 2 64 -63 82 -30 9 -55 21 -55 26 0 16 27 21 64 11 31 -9 38 -8 46 9 9
16 7 21 -15 29 -45 17 -113 12 -135 -10z"/>
</g>
</svg>
